/* XPM */
static char * ouest_xpm[] = {
"128 128 2 1",
" 	c #FFFFFF",
".	c #000000",
"                                                                                                                                ",
"                                                                                                                                ",
"                                                                                                                                ",
"                                                                                                                                ",
"                                                                                                                                ",
"                                                                                                                                ",
"                                                                                                                                ",
"                                                                                                                                ",
"                                                 ..............................                                                 ",
"                                            .....................................                                               ",
"                                         .........................................                                              ",
"                                       ............................................                                             ",
"                                      ........................................................                                  ",
"                                    ............................................................                                ",
"                                   ..............................................................                               ",
"                                 .................................................................                              ",
"                                ...................................................................                             ",
"                               .....................................................................                            ",
"                              .......................................................................                           ",
"                             .........................................................................                          ",
"                            ...........................................................................                         ",
"                           .............................................................................                        ",
"                          ...............................................................................                       ",
"                          ................................................................................                      ",
"                         ..................................................................................                     ",
"                        ..............................                    .................................                     ",
"                        ..........................                         .................................                    ",
"                       ........................                             .................................                   ",
"                       .......................                                ...............................                   ",
"                      ......................                                           .......................                  ",
"                      .....................                                             ......................                  ",
"                      ....................                                              .......................                 ",
"                     ....................                                                ......................                 ",
"                     ...................                                                  ......................                ",
"                    ....................                                                    ....................                ",
"                    ...................                                                      ...................                ",
"                   ....................                                                      ....................               ",
"                   ...................                                                       ....................               ",
"                   ...................                                                        ....................              ",
"                  ....................                                                        ....................              ",
"                  ...................                                                          ...................              ",
"                  ...................                                                          ....................             ",
"                  ..................                                                            ...................             ",
"                 ...................                                                            ...................             ",
"                 ...................                                                             ..................             ",
"                ...................                                                              ...................            ",
"                ...................                                                              ...................            ",
"               ....................                                                               ...................           ",
"               ...................                                                                ...................           ",
"               ...................                                                                ...................           ",
"               ...................                                                                ...................           ",
"               ..................                                                                  ..................           ",
"               ..................                                                                  ...................          ",
"               .................                                                                    ..................          ",
"              ..................                                                                    ..................          ",
"              ..................                                                                    ...................         ",
"              ..................                                                                    ...................         ",
"             ...................                                                                    ...................         ",
"             ...................                                                                     ..................         ",
"             ..................                                                                      ..................         ",
"            ...................                                                                      ..................         ",
"            ...................                                                                       .................         ",
"            ..................                                                                        .................         ",
"            ..................                                                                        .................         ",
"            ..................                                                                        .................         ",
"            ..................                                                                        .................         ",
"            .................                                                                         .................         ",
"            .................                                                                         .................         ",
"           ..................                                                                         .................         ",
"           ..................                                                                         .................         ",
"           ..................                                                                        ..................         ",
"           ..................                                                                        ..................         ",
"           ..................                                                                        ..................         ",
"           ..................                                                                        ..................         ",
"           .................                                                                        ...................         ",
"           .................                                                                        ...................         ",
"           .................                                                                       ...................          ",
"           .................                                                                       ...................          ",
"           .................                                                                       ...................          ",
"           .................                                                                       ...................          ",
"           .................                                                                       ..................           ",
"           .................                                                                      ...................           ",
"           .................                                                                      ..................            ",
"           .................                                                                     ...................            ",
"           .................                                                                     ...................            ",
"           ..................                                                                    ...................            ",
"           ..................                                                                  .....................            ",
"           ..................                                                                 .....................             ",
"           ...................                                                              .......................             ",
"           ....................                                                            .......................              ",
"            .....................                                                        .........................              ",
"            .......................                                                    ..........................               ",
"            .........................                                                ............................               ",
"             ..........................                                             .............................               ",
"             .............................                                        ..............................                ",
"             ...............................                                     ...............................                ",
"              ....................................                             ................................                 ",
"              .........................................                      ..................................                 ",
"               ................................................            ...................................                  ",
"               ..............................................................................................                   ",
"                ...........................................................................................                     ",
"                 ........................................................................................                       ",
"                  .....................................................................................                         ",
"                    ..................................................................................                          ",
"                     ...............................................................................                            ",
"                      .............................................................................                             ",
"                        .........................................................................                               ",
"                           ....................................................................                                 ",
"                             ................................................................                                   ",
"                               .............................................................                                    ",
"                                  ........................................................                                      ",
"                                    .....................................................                                       ",
"                                      ..................................................                                        ",
"                                             .........................................                                          ",
"                                                  .................................                                             ",
"                                                          .......................                                               ",
"                                                                                                                                ",
"                                                                                                                                ",
"                                                                                                                                ",
"                                                                                                                                ",
"                                                                                                                                ",
"                                                                                                                                ",
"                                                                                                                                ",
"                                                                                                                                ",
"                                                                                                                                ",
"                                                                                                                                ",
"                                                                                                                                ",
"                                                                                                                                "};
