/* XPM */
static char * stone_xpm[] = {
"128 128 5 1",
" 	c #7F7F7F",
".	c #747474",
"+	c #8F8F8F",
"@	c #686868",
"#	c #808080",
"        ................................       +++++++++++++++++@@@@@@@@++++++++        ................................        ",
"         ...............................       +++++++++++++++++@@@@@@@@+++++++++       .................................       ",
"         ...............................      ++++++++++++++++++@@@@@@@@+++++++++       .................................       ",
"          ..............................      ++++++++++++++++++@@@@@@@@++++++++++      ..................................      ",
"          .............................      ++++++++++++++++++.@@@@@@@@++++++++++      ..................................      ",
"           ...........................      ++++++++++++++++++..@@@@@@@.+++++++++++      ..................................     ",
"            ..........................    +++++++++++++++++++...@@@@@...+++++++++++++     ...................................   ",
"             ........................   ++++++++++++++++++++....@@@@....+++++++++++++++   ..................................... ",
"                  ++++++++++++++++++++++++++++++++++++.................++++++++++++++++++++++...@@@@@@@...       ...............",
"                 +++++++++++++++++++++++++++++++++++...................+++++++++++++++++++++++..@@@@@@@@.          .............",
"                ++++++++++++++++++++++++++++++++++....................+++++++++++++++++++++++++.@@@@@@@              ...........",
"                ++++++++++++++++++++++++++++++++......................++++++++++++++++++++++++++ @@@@@                 .........",
"                ++++++++++++++++++++++++++++++.......................+++++++++++++++++++++++++++  @@@                    .......",
"                 +++++++++++++++++++++++++++........................++++++++++++++++++++++++++++   @                       .....",
"                  ++++++++++++++++++++++++..........................+++++++++++++++++++++++++++                              ...",
"                   +++++++++++++++++++++...........................+++++++++++++++++++++++++++                                 .",
"            ......................@@@@............................++++++++++++                            +++                   ",
"           ......................@@@@@...........................+++++++++++                             +++++                  ",
"          @@@... ...............@@@@@@@.........................++++++++++......                        +++++++                 ",
"          @@@@..  ..............@@@@@@@@........................+++++++++......                         ++++++++                ",
"          @@@@..  ..............@@@@@@@@.......................+++++++++.....                           +++++++                 ",
"           @@@@.   ..............@@@@@@@@.....................+++++++++ ....                             +++++                  ",
"             @@     ..............@@@@@@@@...................++++++++   ..                                +++                   ",
"                     ..............@@@@@@@@.................++++++++    .                                  +                    ",
"        +++++                        @@@@@@@@@@...        ++++++++                    ...............................           ",
"        ++++++                        @@@@@@@@@@.        ++++++++                   ..................................          ",
"        +++++++                        @@@@@@@@@        ++++++++                  .....................................         ",
"        ++++++++                        @@@@@@@@        +++++++                 ........................................        ",
"        ++++++++                        @@@@@@@@        +++++                 ..........................................        ",
"        +++++++++                       .@@@@@@@         +++                .............................................       ",
"        ++++++++++                     ...@@@@@...                        ................................................      ",
"        +++++++++++                   .....@@@.....                     ..................................................      ",
"        +++++++++++++   ..............................................................+++++++++++++++++++++++++++++++...@@@@@@@@",
"        ++++++++++++++  ............................................................++++++++++++++++++++++++++++++++++..@@@@@@@@",
"        +++++++++++++++ ........................................................  +++++++++++++++++++++++++++++++++++++.@@@@@@@@",
"         +++++++++++++  ........................................................  ++++++++++++++++++++++++++++++++++++++@@@@@@@@",
"          +++++++++++   ........................................................  +++++++++++++++++++++++++++++++++++++@@@@@@@@@",
"           +++++++++    ........................................................   +++++++++++++++++++++++++++++++++++@@@@@@@@@@",
"             +++++      ........................................................    +++++++++++++++++++++++++++++++++@@@@@@@@@@@",
"               +         .......................................................     +++++++++++++++++++++++++++++++@@@@@@@@@@@@",
".........                        .......................................@@@@@...                  ................@@@@@@@@@@@@  ",
"...........                        .....................................@@@@@@..                 ................@@@@@@@@@@@    ",
".............                        .............................      @@@@@@@.                ................@@@@@@@@@@      ",
"..............                        ...........................       @@@@@@@@                ................@@@@@@@@@@      ",
"...............                       ..........................        @@@@@@@                 ................@@@@@@@@@@      ",
"................                       .........................         @@@@@                  .................@@@@@@@@@@     ",
"...............                        ........................           @@@                   ..................@@@@@@@@@@@   ",
"..............                          ......................             @                     .................@@@@@@@@@@@@@ ",
"++++++++++++++              ##          ..............+++++++                                     +++++++++++++++++++@@@@@@@@@@@",
"++++++++++++++             ###          ............++++++++++                                   +++++++++++++++++++++@@@@@@@@@@",
"++++++++++++++            #####         ..........+++++++++++++                                 +++++++++++++++++++++++@@@@@@@@@",
"++++++++++++++            ######        ..........++++++++++++++                                ++++++++++++++++++++++++@@@@@@@@",
"+++++++++++++            ######         ..........+++++++++++++                                 ++++++++++++++++++++++++@@@@@@@@",
"++++++++++++            ######          ...........+++++++++++                                   +++++++++++++++++++++++ @@@@@@@",
"++++++++++              #####          ..............++++++++                                     +++++++++++++++++++++   @@@@@@",
"++++++++                 ###          .................+++++                                       +++++++++++++++++++     @@@@@",
"                              ..............................................@.................................                  ",
"                            ...............................................@@@................................                  ",
"                          ................................................@@@@@................................                 ",
"                         .................................................@@@@@@................................                ",
"                        .................................................@@@@@@................................                 ",
"                       .................................................@@@@@@................................                  ",
"                      ................................................  @@@@@.................................                  ",
"                      ..............................................     @@@.................................                   ",
"              ++++++++++..@@@@@.................                            ++++++++++++++++++++++++++++++++++++++++++++++++++++",
"            +++++++++++..@@@@@@@................                           +++++++++++++++++++++++++++++++++++++++++++++++++++++",
"          ++++++++++++..@@@@@@@@+++++...........                          ++++++++++++++++++++++++++++++++++++++++++++++++++++++",
"          ++++++++++++..@@@@@@@@++++++..........                          ++++++++++++++++++++++++++++++++++++++++++++++++++++++",
"          +++++++++++...@@@@@@@@+++++...........                          ++++++++++++++++++++++++++++++++++++++++++++++++++++++",
"          ++++++++++....@@@@@@@@++++.............                          +++++++++++++++++++++++++++++++++++++++++++++++++++++",
"          +++++++++.....@@@@@@@...................                           +++++++++++++++++++++++++++++++++++++++++++++++++++",
"          ++++++++.......@@@@@.....................                            +++++++++++++++++++++++++++++++++++++++++++++++++",
"        .............................................             @@@                     ...............+++++++++++++++++++++  ",
"        ..............................................           @@@@@                   ..................+++++++++++++++++    ",
"         ..............................................         @@@@@@@                 .....................+++++++++++++      ",
"          ..............................................        @@@@@@@@                ......................++++++++++        ",
"          ..............................................        @@@@@@@@                ........................++++++          ",
"           ..............................................      .@@@@@@@@                 .......................++++            ",
"            ..............................................   ...@@@@@@@@..                .....................                 ",
"             .............................................. ....@@@@@@@@...               ....................                  ",
"                 .............................+++...............@@@@@@@@.......       +++++++++++                               ",
"                  ..........................+++++++.............@@@@@@@@........    +++++++++++++++                             ",
"                +++++.....................+++++++++++...........@@@@@@@@........  +++++++++++++++++++                           ",
"                ++++++....................++++++++++++..........@@@@@@@@....... +++++++++++++++++++++++                         ",
"                  +++++...................++++++++++++ .........@@@@@@@.......+++++++++++++++++++++++++++                       ",
"                   +++++................. +++++++++++   ........@@@@@@......+++++++++++++++++++++++++++++++                     ",
"                     +++  ..............  +++++++++     .....   @@@@@@....+++++++++++++++++++++++++++++++++++                   ",
"                      +    .............   +++++++       ...    @@@@@...+++++++++++++++++++++++++++++++++++++++                 ",
"@                            ...........                          ++++++++++++++++++++           ++++++++++++++++++++++   @@@@@@",
"@@@                           ...........                        +++++++++++++++++++               +++++++++++++++++++++ @@@@@@@",
"@@@@@                           .........                       ++++++++++++++++++                   +++++++++++++++++++@@@@@@@@",
"@@@@@@                         ...........                      ++++++++++++++++++                     +++++++++++++++++@@@@@@@@",
"@@@@@                        .............                      +++++++++++++++++                        ++++++++++++++.@@@@@@@@",
"@@@@                        ...............                     +++++++++++++++++                          +++++++++++..@@@@@@@@",
"@@                        ...................                   ++++++++++++++++                             ++++++++...@@@@@@@@",
"                        .......................                 ++++++++++++++++                               +++++....@@@@@@@@",
"              ...............................................   ++++++++++++++++  ...........................................   ",
"            ..................................................  ++++++++++++++++ ...........................................    ",
"          ......................................................+++++++++++++++...........................................      ",
"          .......................................................+++++++++++++..........................................        ",
"         .........................................................+++++++++++.........................................          ",
"        ...........................................................+++++++++........................................            ",
"        .............................................................+++++........................................              ",
"        ...............................................................+........................................                ",
"          +++++++++++++++++++++++++++++++++++    .................................@@@@@...............                ++++++++++",
"          ++++++++++++++++++++++++++++++++++++     ..............................@@@@@@@............                ++++++++++++",
"          +++++++++++++++++++++++++++++++++++++      ...........................@@@@@@@...........                ++++++++++++++",
"          ++++++++++++++++++++++++++++++++++++++      ..........................@@@@@@...........                 ++++++++++++++",
"          +++++++++++++++++++++++++++++++++++++      ...........................@@@@@...........                  ++++++++++++++",
"           +++++++++++++++++++++++++++++++++++      ............................@@@@...........                    +++++++++++++",
"             ++++++++++++++++++++++++++++++++     ...........................   @@............                       +++++++++++",
"               +++++++++++++++++++++++++++++    ............................     ............                          +++++++++",
"                          ............................................                +++++++++           .......               ",
"                         ...........................................                ++++++++++++         ..........             ",
"                        ..........................................                +++++++++++++         .............           ",
"                       ..........................................                +++++++++++++         ...............          ",
"                     ...........................................                +++++++++++++        ...................        ",
"                    ...........................................                 ++++++++++++        ...................         ",
"                  ...........................................                     ++++++++        ....................          ",
"                ............................................                       +++++        .....................           ",
".....................................@@@..+++++++++++                                         ......................            ",
"....................................@@@@.+++++++++++++                                      .......................             ",
"..................................@@@@@@+++++++++++++++                                   ........................              ",
"..................................@@@@@@++++++++++++++++                                 .........................              ",
".................................@@@@@@@++++++++++++++++                                .........................               ",
".................................@@@@@@@++++++++++++++++                                .........................               ",
"................................@@@@@@@@++++++++++++++++                                ........................                ",
"................................@@@@@@@@++++++++++++++++                                ........................                "};
