/* XPM */
static char * diamond_xpm[] = {
"64 64 18 1",
" 	c #C29D62",
".	c #B8945F",
"+	c #AF8F55",
"@	c #9F844D",
"#	c #967441",
"$	c #11727A",
"%	c #DAFDF5",
"&	c #FFFFFF",
"*	c #145E53",
"=	c #A1FBE8",
"-	c #4AEDD9",
";	c #2CE0D8",
">	c #7E6237",
",	c #67502C",
"'	c #1AAAA7",
")	c #20C5B5",
"!	c #D5FFF6",
"~	c #1C919A",
"      ........              ..    ....                    ..++@#",
"......++..++++................++.++......+.....++..........++++#",
"+......++.....+++.+++....+++++....+++.+++...++..+++..........++@",
"++........+++++.....++++..++.++.....++++..++++++@+....+.++++..+#",
"....++@++...++.++++@++@@+@@@+.+++......+++@@++@@+.++.++++...++@#",
"..++.++@...+..++@@@##@@@@+++++......++++@@@+++++......+@@++++@@@",
"++.....+++++@@+...+@@++++.++..+++++.....+++++.....++++++@@@+++@@",
"@@++++@++@@@++..+++++.......++@@+++++++@@+++++......+++++++@@@+@",
"+++@@@++@@++..+++...++++..$$$$$$$$$$$$@+++.....++++++@#@++....+#",
"@@@@++..+++.......++....$$%&&&&%%&&&%%**++++....++@@##@+...++.+#",
".+++@@++.@@@+....++.++@$%%%====%%%=====%*...+++++@+++++++++..+@#",
"...+++@@@#@+++++.....+$&&=%%=---=---===%%*+++@@@+++@+....+..++@#",
"+++....+++@@@@+++++++$&%&===---------==%=%*@@+++@@@...++@@++@@@#",
"@@@+++..++++++@@@@@@$%=%%=-----;;----======*++@@@@++++++++@@@@##",
"##@@#@@@####@@@@@#@$&===%-----;;;;;---=%=--%*>>>>>>>>>>>####>#>>",
">######>>#>>>>>>##$&%-=-%=-;;-;;;;---==%---==*,,,,,,,,,,>>>>,,,,",
"+.    ....       $%=----=%-;;;;;;;;;--%=-;--=%* ..++++@@@@++++++",
"++..............$&==-----&-;;;;;;;;;;-%=-;-;-=%*....+++++@@@++++",
"......+...++++.$%%-=-;---&--;;;;;;;;--%=;;;;;-=%*+++..++++.....+",
"...+++..++++@@$&%=;;-;;--&----;;;-----%-;;;;;;-%%*.++@++....+++.",
"+....+++....++$&%-;;;;;;-%=---------==%-;;;;;;;=%*@@@##@+++...++",
"+++++++....++$&&-;;;;;;;-=%==--==%%%%%%-;;;;-;;-=%*++@@+++++++..",
".+++@+++++++.$&=-;;;;;;;=%%%%%%%&&&&%%=--;;;--;;-%*.+++@@+......",
"..+@@@@++...$&%-;;;;;;;-%%=--====%==-===--;;;----=%*++++++++..+.",
"....++@@@@#@$&=---;;;;=&=-----=-;;--=====------==%=*@..++@@+++.+",
"..++@@++++@$&%&&=-----&=-----=-;;--=====-=---=%%=-;'*++...+@@+++",
"+@@@++...++$&==%%&=--%=----;;;;;--==-==---====--;;))*...++++@@@@",
"@@++++++..$%=--==%%%%=---;;;;;;--==--=----)=-;;));;)'*.++@@@#@++",
"++@@@@@+++$%=-----=%&==-;;;;;---==--=-;---)-;;))))))'*@@@+++...+",
"+++++@@@@@$%---;;--=&--;;;-;;;-==---;;----);))))))))'*+@@@+.+.++",
"#>>>>#####$!--;;----&--;--;;;-==-;;;;;----')))))))))'*####>>>###",
">>,,,,,,>>$%-;;;;;--%----;;;-==-;;;;;----;'))))))'')'*,,>,>>,,,>",
"..        $%-;;;;;;-%--;;;--==-;;;;;;;;-;;~)))))'')''*  ...+++@#",
"..........$&--;;;;-=%-;;;;-==;;;;;;;;;--;;~')))))))''*....++..+#",
".........+$&;;;;;;==&--;;-==--;;;;--;--;-;~~''')))'''*++++...++@",
".+++++.+..$&;;;;;;-=&----==-;;--;;---=--;)~~~''''''''*..++++++@@",
"......++++$%-;;;;-=&==--==-;;--;;--==--;)')'~~''~''''*++@@@@@@@#",
".+++...+++$&--;--=&=-=-==-;-==----==-;;)''))'~'~'''''*@@@@++++@#",
"..++++....$%=---=%--;--;;--==---=%%-;;)''))))'~~'''''*++++..+++#",
"+++.....++$%=--==----;-;)''''''''''~~~~')))))''~~''''*+....++.+@",
"@@+++++++..$%=%%-----;;;''))))))))))''~)))))))''~'''*@@++....++@",
"++@@@+....+$&&%=-;--;;;)')))))))))))))~'))))))'''~'~*+++++++..+#",
"..+@@@++...+*%=--;;;;;;'))))))))))))))'~))))))''''~*.....+.++++@",
".++++@@+++..*=----;;;;;'))))))))))))))'~))))))''')'*++..+....++#",
"++@@@+++..++.*;----;;;)'))))))))))))))'~')))))''')*@+....+++++@#",
"@@@@+++++++@@*;-;-;;;;'))))))))))))))'''~)))))'''-*+++++++++@@##",
"#>##>>>>##@##@*;;;;;;;')))))))))))'))'''~)))))'')*#>>#>>>>>>##>>",
">>>>,,>>>>##>#*;;;;;;;'))))))))))))'''''~')))'')-*>>,>,,,,,>>>,,",
"    ........   *;;;;;)'))))))))))))))''''~)))')-*.......        ",
"....++++........*);;;'))))))))))))))))'''~))')-*...+++..........",
"..+++@+@@@+.....+*);;'))))))))))))'''''''~)))-*++++......+++....",
".+@@@@@++..+++....*;)')))))))'))''''''''''~)-*..++++....++......",
"@@+++++........++++*''))))))))''''''''''''~-*+.....+++++...++...",
"+++++.+++.++++..+@@+*'')))))))))))'''''''''*+++..++++@@@@++....+",
"..++.........++++++..**)---========-)-==)**+++.....+++@#@@+++++.",
"......++++++@@.......++******************+++@@++..+@@##@+++++...",
"..++++@@@+@@++++++.....++.....+@++....+++..++@@@@@@+++++........",
"+...+++@@##@@@@+++++........+++@+++++.....+++.++@@++..++++...+++",
"+++++@@@++++++....++++++++++..+@@@@++++.........+....+@@++++@@@@",
"@@@@@+++++.........++@@@+++++++#+@@@@@++++....++..+++++@@@@@++++",
"++++@@@@@@@+++++++....+@@@++++@#+++++++++++++++@++++@@@+++++++++",
"++++++++@@@@@@++++++++@@@+@@@@##@@+++++@@@++@@@@@@@@@@++++@@++++",
">>>####>>##>>###>>>>####@@########@@#######>>>>#####>>##>####>>>",
",,,,>>>>,>,,,>,,,,,,>>>>##>>########>>>>>>,,,,,>,,,,,,,,,,,,,,,,"};
