/* XPM */
static char * exit_L_xpm[] = {
"64 64 7 1",
" 	c None",
".	c #B1B0B0",
"+	c #B9B9B9",
"@	c #FFFF00",
"#	c #C1C1C1",
"$	c #D6D6D6",
"%	c #D1CFCF",
".++++++++++++++++++++@@@@@@@@@@@@@@@@@@++++++++++++++++++++++++.",
"+###############@@@@@@@@@@@@@@@@@@@@@@@@@@@@###################+",
"+#$$$$$$$$$$$$$@@@@@@@@@@@@@@@@@@@@@@@@@@@@@@$$$$$$$$$$$$$$$$$#+",
"+#$%%%%%%%%%@@@@@@@@@@@@@@@@@@@@@@@@@@@@@@@@@@@@%%%%%%%%%%%%%$#+",
"+#$%%%%%%%%@@@@@@@@@@@@@@@@@@@@@@@@@@@@@@@@@@@@@@%%%%%%%%%%%%$#+",
"+#$%%%%%%%@@@@@@@@@@@@@@@@@@@@@@@@@@@@@@@@@@@@@@@@%%%%%%%%%%%$#+",
"+#$%%%%%%@@@@@@@@@@@@@@@@@@@@@@@@@@@@@@@@@@@@@@@@@@%%%%%%%%%%$#+",
"+#$%%%%%@@@@@@@@@@@@@@@@@@@@@@@@@@@@@@@@@@@@@@@@@@@@%%%%%%%%%$#+",
"+#$%%%%@@@@@@@@@@@@@@@@@@@@@@@@@@@@@@@@@@@@@@@@@@@@@@%%%%%%%%$#+",
"+#$%%%@@@@@@@@@@@@@@@@@@@@@@@@@@@@@@@@@@@@@@@@@@@@@@@@%%%%%%%$#+",
"+#$%%@@@@@@@@@@@@@@@@@@@@@@@@@@@@@@@@@@@@@@@@@@@@@@@@@@%%%%%%$#+",
"+#$%@@@@@@@@@@@@@@@@@@@@@@@@@@@@@@@@@@@@@@@@@@@@@@@@@@@@%%%%%$#+",
"+#$@@@@@@@@@@@@@@@@@@@@@@@@@@@@@@@@@@@@@@@@@@@@@@@@@@@@@@%%%%$#+",
"+#@@@@@@@@@@@@@@@@@@@@@@@@@@@@@@@@@@@@@@@@@@@@@@@@@@@@@@@@%%%$#+",
"+@@@@@@@@@@@@@@@@@@@@@@@@@@@@@@@@@@@@@@@@@@@@@@@@@@@@@@@@@@%%$#+",
"+@@@@@@@@@@@@@@@@@@@@@@@@@@@@@@@@@@@@@@@@@@@@@@@@@@@@@@@@@@%%$#+",
"+@@@@@@@@@@@@@@@@@@@@@@@@@@@@@@@@@@@@@@@@@@@@@@@@@@@@@@@@@@%%$#+",
"+@@@@@@@@@@@@@@@@@@@@@@@@@@@@@@@@@@@@@@@@@@@@@@@@@@@@@@@@@@@%$#+",
"+#@@@@@@@@@@@@@@@@@@@@@@@@@@@@@@@@@@@@@@@@@@@@@@@@@@@@@@@@@@@$#+",
"+#$%%@@@@@@@@@@@@@@@@@@@@@@@@@@@@@@@@@@@@@@@@@@@@@@@@@@@@@@@@$#+",
"+#$%%%@@@@@@@@@@@@@@@@@@@@@@@@@@@@@@@@@@@@@@@@@@@@@@@@@@@@@@@$#+",
"+#$%%%%%%@@@@@@@@@@@@@@@@@@@@@@@@@@@@@@@@@@@@@@@@@@@@@@@@@@@@$#+",
"+#$%%%%%%%@@@@@@@@@@@@@@@@@@@@@@@@@@@@@@@@@@@@@@@@@@@@@@@@@@@$#+",
"+#$%%%%%%%%# @@@@@@@@@@@@@@@@@@@@@@@@@@@@@@@@@@@@@@@@@@@@@@@@@#+",
"+#$%%%%%%%%$$$@@@@@@@@@@@@@@@@@@@@@@@@@@@@@@@@@@@@@@@@@@@@@@@@@+",
"+#$$$$$$$$$%%%%%%%%@@@@@@@@@@@@@@@@@@@@@@@@@@@@@@@@@@@@@@@@@@@@+",
"+#$$$$$$$$$%%%%%%%%%@@@@@@@@@@@@@@@@@@@@@@@@@@@@@@@@@@@@@@@@@@@+",
"+#$$$$$$$$$%%%%%%%%%%%%%$@@@@@@@@@@@@@@@@@@@@@@@@@@@@@@@@@@@@@@+",
"+#$$$$$$$$$%%%%%%%%%%%%%$$@@@@@@@@@@@@@@@@@@@@@@@@@@@@@@@@@@@@@+",
"+#$$$$$$$$$%%%%%%%%%%%%%$$$$$@@@@@@@@@@@@@@@@@@@@@@@@@@@@@@@@@@+",
"+#$$$$$$$$$%%%%%%%%%%%%%$$$$$$@@@@@@@@@@@@@@@@@@@@@@@@@@@@@@@@@+",
"+#$$$$$$$$$%%%%%%%%%%%%%$$$$$$$$$@@@@@@@@@@@@@@@@@@@@@@@@@@@@@@+",
"+#$$$$$$$$$%%%%%%%%%%%%%$$$$$$$$$@@@@@@@@@@@@@@@@@@@@@@@@@@@@@@+",
"+#$$$$$$$$$%%%%%%%%%%%%%$$$$$$@@@@@@@@@@@@@@@@@@@@@@@@@@@@@@@@@+",
"+#$$$$$$$$$%%%%%%%%%%%%%$$$$$@@@@@@@@@@@@@@@@@@@@@@@@@@@@@@@@@@+",
"+#$$$$$$$$$%%%%%%%%%%%%%$$@@@@@@@@@@@@@@@@@@@@@@@@@@@@@@@@@@@@@+",
"+#$$$$$$$$$%%%%%%%%%%%%%$@@@@@@@@@@@@@@@@@@@@@@@@@@@@@@@@@@@@@@+",
"+#$$$$$$$$$%%%%%%%%%@@@@@@@@@@@@@@@@@@@@@@@@@@@@@@@@@@@@@@@@@@@+",
"+#$$$$$$$$$%%%%%%%%@@@@@@@@@@@@@@@@@@@@@@@@@@@@@@@@@@@@@@@@@@@@+",
"+#$%%%%%%%%+##@@@@@@@@@@@@@@@@@@@@@@@@@@@@@@@@@@@@@@@@@@@@@@@@@+",
"+#$%%%%%%%%# @@@@@@@@@@@@@@@@@@@@@@@@@@@@@@@@@@@@@@@@@@@@@@@@@#+",
"+#$%%%%%%%@@@@@@@@@@@@@@@@@@@@@@@@@@@@@@@@@@@@@@@@@@@@@@@@@@@$#+",
"+#$%%%%%%@@@@@@@@@@@@@@@@@@@@@@@@@@@@@@@@@@@@@@@@@@@@@@@@@@@@$#+",
"+#$%%%@@@@@@@@@@@@@@@@@@@@@@@@@@@@@@@@@@@@@@@@@@@@@@@@@@@@@@@$#+",
"+#$%%@@@@@@@@@@@@@@@@@@@@@@@@@@@@@@@@@@@@@@@@@@@@@@@@@@@@@@@@$#+",
"+#@@@@@@@@@@@@@@@@@@@@@@@@@@@@@@@@@@@@@@@@@@@@@@@@@@@@@@@@@@@$#+",
"+@@@@@@@@@@@@@@@@@@@@@@@@@@@@@@@@@@@@@@@@@@@@@@@@@@@@@@@@@@@%$#+",
"+@@@@@@@@@@@@@@@@@@@@@@@@@@@@@@@@@@@@@@@@@@@@@@@@@@@@@@@@@@%%$#+",
"+@@@@@@@@@@@@@@@@@@@@@@@@@@@@@@@@@@@@@@@@@@@@@@@@@@@@@@@@@@%%$#+",
"+@@@@@@@@@@@@@@@@@@@@@@@@@@@@@@@@@@@@@@@@@@@@@@@@@@@@@@@@@@%%$#+",
"+#@@@@@@@@@@@@@@@@@@@@@@@@@@@@@@@@@@@@@@@@@@@@@@@@@@@@@@@@%%%$#+",
"+#$@@@@@@@@@@@@@@@@@@@@@@@@@@@@@@@@@@@@@@@@@@@@@@@@@@@@@@%%%%$#+",
"+#$%@@@@@@@@@@@@@@@@@@@@@@@@@@@@@@@@@@@@@@@@@@@@@@@@@@@@%%%%%$#+",
"+#$%%@@@@@@@@@@@@@@@@@@@@@@@@@@@@@@@@@@@@@@@@@@@@@@@@@@%%%%%%$#+",
"+#$%%%@@@@@@@@@@@@@@@@@@@@@@@@@@@@@@@@@@@@@@@@@@@@@@@@%%%%%%%$#+",
"+#$%%%%@@@@@@@@@@@@@@@@@@@@@@@@@@@@@@@@@@@@@@@@@@@@@@%%%%%%%%$#+",
"+#$%%%%%@@@@@@@@@@@@@@@@@@@@@@@@@@@@@@@@@@@@@@@@@@@@%%%%%%%%%$#+",
"+#$%%%%%%@@@@@@@@@@@@@@@@@@@@@@@@@@@@@@@@@@@@@@@@@@%%%%%%%%%%$#+",
"+#$%%%%%%%@@@@@@@@@@@@@@@@@@@@@@@@@@@@@@@@@@@@@@@@%%%%%%%%%%%$#+",
"+#$%%%%%%%%@@@@@@@@@@@@@@@@@@@@@@@@@@@@@@@@@@@@@@%%%%%%%%%%%%$#+",
"+#$$$$$$$$$$@@@@@@@@@@@@@@@@@@@@@@@@@@@@@@@@@@@@$$$$$$$$$$$$$$#+",
"+#%%%%%%%%%%%%%@@@@@@@@@@@@@@@@@@@@@@@@@@@@@@%%%%%%%%%%%%%%%%%#+",
"+###############@@@@@@@@@@@@@@@@@@@@@@@@@@@@###################+",
".++++++++++++++++++++@@@@@@@@@@@@@@@@@@++++++++++++++++++++++++."};
