/* XPM */
static char * exit_B_xpm[] = {
"64 64 9 1",
" 	c None",
".	c #B1B0B0",
"+	c #B9B9B9",
"@	c #C1C1C1",
"#	c #FFFF00",
"$	c #D6D6D6",
"%	c #D1CFCF",
"&	c #DCDCDC",
"*	c #E6E6E6",
".++++++++++++++++++++++++++++++++++++++++++++++++++++++++++++++.",
"+@@@@@@@@@@@@@@@@@@@@@@@################@@@@@@@@@@@@@@@@@@@@@@@+",
"+@$$$$$$$$$$$$$$$$$$$$$##################$$$$$$$$$$$$$$$$$$$$$@+",
"+@$%%%%%%%%%%%%%%%############################%%%%%%%%%%%%%%%$@+",
"+@$%%%%%%%%%%%%%%##############################%%%%%%%%%%%%%%$@+",
"+@$%%%%%%%%%%%####################################%%%%%%%%%%%$@+",
"+@$%%%%%%%%%%######################################%%%%%%%%%%$@+",
"+@$%%%%%%%%%########################################%%%%%%%%%$@+",
"+@$%%%%%%%%##########################################%%%%%%%%$@+",
"+@$%%%%%%%############################################%%%%%%%$@+",
"+@$%%%%%%##############################################%%%%%%$@+",
"+@$%%%%%################################################%%%%%$@+",
"+@$%%%%##################################################%%%%$@+",
"+@$%%%####################################################%%%$@+",
"+@$%%######################################################%%$@+",
"+@$%########################################################%$@+",
"+@$##########################################################$@+",
"+@$##########################################################$@+",
"+@$##########################################################$@+",
"+@############################################################@+",
"+##############################################################+",
"+##############################################################+",
"+##############################################################+",
"+##############################################################+",
"+##############################################################+",
"################################################################",
"################################################################",
"################################################################",
"################################################################",
"################################################################",
"################################################################",
"###############################$$###############################",
"###############################$$###############################",
"###############################$$###############################",
"##############################$$$$##############################",
"#############################$$$$$$#############################",
"#############################$$$$$$#############################",
"#############################$$$$$$#############################",
"############################$$$$$$$$############################",
"###########################$$$$$$$$$$###########################",
"###########################%%%%%%%%%%###########################",
"###########################%%%%%%%%%%###########################",
"###########################%%%%%%%%%%###########################",
"+##########################%%%%%%%%%%##########################+",
"+#########################%%%%%%%%%%%%#########################+",
"+########################%%%%%%%%%%%%%%########################+",
"+########################%%%%%%%%%%%%%%########################+",
"+########################%%%%%%%%%%%%%%########################+",
"+@#######################%%%%%%%%%%%%%%#######################@+",
"+@$######################%%%%%%%%%%%%%%######################$@+",
"+@$#####################&%%%%%%%%%%%%%%@#####################$@+",
"+@$#################### &%%%%%%%%%%%%%%@ ####################$@+",
"+@$%###################&*%%%%%%%%%%%%%%$$###################%$@+",
"+@$%%##################%%$$$$$$$$$$$$$$%%##################%%$@+",
"+@$%%%################%%%$$$$$$$$$$$$$$%%%################%%%$@+",
"+@$%%%%##############%%%%$$$$$$$$$$$$$$%%%%##############%%%%$@+",
"+@$%%%%%#############%%%%$$$$$$$$$$$$$$%%%%#############%%%%%$@+",
"+@$%%%%%%############%%%%$$$$$$$$$$$$$$%%%%############%%%%%%$@+",
"+@$%%%%%%%##########%%%%%$$$$$$$$$$$$$$%%%%%##########%%%%%%%$@+",
"+@$%%%%%%%%########%%%%%%$$$$$$$$$$$$$$%%%%%%########%%%%%%%%$@+",
"+@$$$$$$$$$$#######$$$$$$$$$$$$$$$$$$$$$$$$$$#######$$$$$$$$$$@+",
"+@%%%%%%%%%%%######%%%%%%$$$$$$$$$$$$$$%%%%%%######%%%%%%%%%%%@+",
"+@@@@@@@@@@@@@####@@@@@@@@@@@@@@@@@@@@@@@@@@@@####@@@@@@@@@@@@@+",
".++++++++++++++++++++++++++++++++++++++++++++++++++++++++++++++."};
