/* XPM */
static char *result[] = {
/* columns rows colors chars-per-pixel */
"64 64 8 1 ",
"  c #B1B0B0",
". c #B9B9B9",
"X c #C1C1C1",
"o c #D1CFCF",
"O c gray84",
"+ c gainsboro",
"@ c #E6E6E6",
"# c None",
/* pixels */
" .............................................................. ",
".XXXXXXXXXXXXXXXXXXXXXXXXXXXXXXXXXXXXXXXXXXXXXXXXXXXXXXXXXXXXXX.",
".XOOOOOOOOOOOOOOOOOOOOOOOOOOOOOOOOOOOOOOOOOOOOOOOOOOOOOOOOOOOOX.",
".XOooooooooooooooooooooooOOOOOOOOOOOOOOooooooooooooooooooooooOX.",
".XOooooooooooooooooooooooOOOOOOOOOOOOOOooooooooooooooooooooooOX.",
".XOooooooooooooooooooooooOOOOOOOOOOOOOOooooooooooooooooooooooOX.",
".XOooooooooooooooooooooooOOOOOOOOOOOOOOooooooooooooooooooooooOX.",
".XOooooooooooooooooooooooOOOOOOOOOOOOOOooooooooooooooooooooooOX.",
".XOooooooooooooooooooooooOOOOOOOOOOOOOOooooooooooooooooooooooOX.",
".XOooooooooooooooooooooooOOOOOOOOOOOOOOooooooooooooooooooooooOX.",
".XOooooooooooooooooooooooOOOOOOOOOOOOOOooooooooooooooooooooooOX.",
".XOoooooooo.XXXXXXXXXXXXOoooooooooooooo.XXXXXXXXXXXXOooooooooOX.",
".XOooooooooX############OooooooooooooooX############OooooooooOX.",
".XOooooooooX############OooooooooooooooX############OooooooooOX.",
".XOooooooooX############OooooooooooooooX############OooooooooOX.",
".XOooooooooX############OooooooooooooooX############OooooooooOX.",
".XOooooooooX############OooooooooooooooX############OooooooooOX.",
".XOooooooooX############OooooooooooooooX############OooooooooOX.",
".XOooooooooX############OooooooooooooooX############OooooooooOX.",
".XOooooooooX############OooooooooooooooX############OooooooooOX.",
".XOooooooooX############OooooooooooooooX############OooooooooOX.",
".XOooooooooX############OooooooooooooooX############OooooooooOX.",
".XOooooooooX############+ooooooooooooooX############+ooooooooOX.",
".XOooooooooX############+ooooooooooooooX############+ooooooooOX.",
".XOooooooooOOOOOOOOOOO++@OOOOOOOOOOOOOOOOOOOOOOOOO++@ooooooooOX.",
".XOOOOOOOOOoooooooooooooOOOOOOOOOOOOOOOOoooooooooooooOOOOOOOOOX.",
".XOOOOOOOOOoooooooooooooOOOOOOOOOOOOOOOOoooooooooooooOOOOOOOOOX.",
".XOOOOOOOOOoooooooooooooOOOOOOOOOOOOOOOOoooooooooooooOOOOOOOOOX.",
".XOOOOOOOOOoooooooooooooOOOOOOOOOOOOOOOOoooooooooooooOOOOOOOOOX.",
".XOOOOOOOOOoooooooooooooOOOOOOOOOOOOOOOOoooooooooooooOOOOOOOOOX.",
".XOOOOOOOOOoooooooooooooOOOOOOOOOOOOOOOOoooooooooooooOOOOOOOOOX.",
".XOOOOOOOOOoooooooooooooOOOOOOOOOOOOOOOOoooooooooooooOOOOOOOOOX.",
".XOOOOOOOOOoooooooooooooOOOOOOOOOOOOOOOOoooooooooooooOOOOOOOOOX.",
".XOOOOOOOOOoooooooooooooOOOOOOOOOOOOOOOOoooooooooooooOOOOOOOOOX.",
".XOOOOOOOOOoooooooooooooOOOOOOOOOOOOOOOOoooooooooooooOOOOOOOOOX.",
".XOOOOOOOOOoooooooooooooOOOOOOOOOOOOOOOOoooooooooooooOOOOOOOOOX.",
".XOOOOOOOOOoooooooooooooOOOOOOOOOOOOOOOOoooooooooooooOOOOOOOOOX.",
".XOOOOOOOOOoooooooooooooOOOOOOOOOOOOOOOOoooooooooooooOOOOOOOOOX.",
".XOOOOOOOOOoooooooooooooOOOOOOOOOOOOOOOOoooooooooooooOOOOOOOOOX.",
".XOoooooooo.XXXXXXXXXXXXOOOOOOOOOOOOOOO.XXXXXXXXXXXXOooooooooOX.",
".XOooooooooX############OooooooooooooooX############OooooooooOX.",
".XOooooooooX############OooooooooooooooX############OooooooooOX.",
".XOooooooooX############OooooooooooooooX############OooooooooOX.",
".XOooooooooX############OooooooooooooooX############OooooooooOX.",
".XOooooooooX############OooooooooooooooX############OooooooooOX.",
".XOooooooooX############OooooooooooooooX############OooooooooOX.",
".XOooooooooX############OooooooooooooooX############OooooooooOX.",
".XOooooooooX############OooooooooooooooX############OooooooooOX.",
".XOooooooooX############OooooooooooooooX############OooooooooOX.",
".XOooooooooX############OooooooooooooooX############OooooooooOX.",
".XOooooooooX############+ooooooooooooooX############+ooooooooOX.",
".XOooooooooX############+ooooooooooooooX############+ooooooooOX.",
".XOooooooooOOOOOOOOOOO++@ooooooooooooooOOOOOOOOOOO++@ooooooooOX.",
".XOooooooooooooooooooooooOOOOOOOOOOOOOOooooooooooooooooooooooOX.",
".XOooooooooooooooooooooooOOOOOOOOOOOOOOooooooooooooooooooooooOX.",
".XOooooooooooooooooooooooOOOOOOOOOOOOOOooooooooooooooooooooooOX.",
".XOooooooooooooooooooooooOOOOOOOOOOOOOOooooooooooooooooooooooOX.",
".XOooooooooooooooooooooooOOOOOOOOOOOOOOooooooooooooooooooooooOX.",
".XOooooooooooooooooooooooOOOOOOOOOOOOOOooooooooooooooooooooooOX.",
".XOooooooooooooooooooooooOOOOOOOOOOOOOOooooooooooooooooooooooOX.",
".XOOOOOOOOOOOOOOOOOOOOOOOOOOOOOOOOOOOOOOOOOOOOOOOOOOOOOOOOOOOOX.",
".XoooooooooooooooooooooooOOOOOOOOOOOOOOoooooooooooooooooooooooX.",
".XXXXXXXXXXXXXXXXXXXXXXXXXXXXXXXXXXXXXXXXXXXXXXXXXXXXXXXXXXXXXX.",
" .............................................................. "
};
