/* XPM */
static char * player_B_xpm[] = {
"64 64 116 2",
"  	c #C29D62",
". 	c #B8945F",
"+ 	c #AF8F55",
"@ 	c #9F844D",
"# 	c #967441",
"$ 	c #B8955F",
"% 	c #B9955F",
"& 	c #BB995E",
"* 	c #CBB454",
"= 	c #F0EA30",
"- 	c #F6F224",
"; 	c #F6F324",
"> 	c #F5F21F",
", 	c #B29454",
"' 	c #AF9055",
") 	c #BA985E",
"! 	c #BCA350",
"~ 	c #BDA64F",
"{ 	c #C5AA58",
"] 	c #CDB753",
"^ 	c #F1EC2D",
"/ 	c #FDFD0C",
"( 	c #FEFE02",
"_ 	c #FFFE03",
": 	c #FDFC09",
"< 	c #F0EC27",
"[ 	c #C4A958",
"} 	c #F0EA2F",
"| 	c #F6F323",
"1 	c #F5F31E",
"2 	c #F7F51C",
"3 	c #FDFD08",
"4 	c #FFFF01",
"5 	c #FFFF00",
"6 	c #FDFD0A",
"7 	c #F8F520",
"8 	c #EEE92A",
"9 	c #C5B14B",
"0 	c #A0864D",
"a 	c #C3A759",
"b 	c #BEA64F",
"c 	c #C7B44A",
"d 	c #EEEA23",
"e 	c #BDAE43",
"f 	c #F6F418",
"g 	c #FDFD07",
"h 	c #BBAB44",
"i 	c #EDEA23",
"j 	c #F0EB28",
"k 	c #C5B24B",
"l 	c #A0854D",
"m 	c #A38A4C",
"n 	c #9B7C40",
"o 	c #FDFC05",
"p 	c #ECE81D",
"q 	c #FDFC08",
"r 	c #B6A339",
"s 	c #856C36",
"t 	c #977541",
"u 	c #7E6237",
"v 	c #9A7B40",
"w 	c #B5A239",
"x 	c #FCFC04",
"y 	c #E9E717",
"z 	c #9C9226",
"A 	c #6F5B2B",
"B 	c #67502C",
"C 	c #CBAD5C",
"D 	c #F2EB31",
"E 	c #FFFF02",
"F 	c #B09055",
"G 	c #CDB653",
"H 	c #F5F220",
"I 	c #F3F11C",
"J 	c #F3F016",
"K 	c #FEFE01",
"L 	c #FDFD04",
"M 	c #F5F313",
"N 	c #F1EF12",
"O 	c #F3F20A",
"P 	c #A59D25",
"Q 	c #F7F425",
"R 	c #CDB15A",
"S 	c #B19E47",
"T 	c #F4F21B",
"U 	c #F2F016",
"V 	c #EBE825",
"W 	c #ECE825",
"X 	c #AF9B48",
"Y 	c #B8A538",
"Z 	c #AB943C",
"` 	c #F3F115",
" .	c #F1F011",
"..	c #F2F011",
"+.	c #977641",
"@.	c #9A8933",
"#.	c #978433",
"$.	c #E7E519",
"%.	c #F0EF0C",
"&.	c #69532C",
"*.	c #806537",
"=.	c #E5E313",
"-.	c #877A29",
";.	c #C4A161",
">.	c #D2B957",
",.	c #F3ED2E",
"'.	c #FEFD0B",
").	c #C39E62",
"!.	c #CCB05B",
"~.	c #FDFC0B",
"{.	c #FCFC09",
"].	c #7F6337",
"^.	c #EAE61F",
"/.	c #E7E419",
"(.	c #A79A30",
"_.	c #846B36",
"            . . . . . . . .                             . .         . . . .                                         . . + + @ # ",
". . . . . . + + . . + + + + . . . . $ % % % & * = - ; ; ; ; > > ; > > ; ; ; - = * , % % % $ . + + . . . . . . . . . . + + + + # ",
"+ . . . . . . + + . . . . . + + ' ) ! ~ ~ { ] ^ / ( ( ( ( ( _ _ _ _ ( ( ( _ ( : < ] { [ ~ ! ) $ + + + . . . . . . . . . . + + @ ",
"+ + . . . . . . . . + + + + ' % & * } | 1 1 2 3 4 5 5 5 5 5 5 5 5 5 5 5 5 5 5 4 6 7 1 1 > 8 9 , 0 ' . . . . + . + + + + . . + # ",
". . . . + + @ + + . . . ' , a b c < : ( ( ( 4 5 5 5 5 5 5 5 5 5 5 5 5 5 5 5 5 5 5 4 ( ( ( : d e b a , ' . + + + + . . . + + @ # ",
". . + + . + + @ . . . ' & * 8 > f g 4 5 5 5 5 5 5 5 5 5 5 5 5 5 5 5 5 5 5 5 5 5 5 5 5 5 5 4 3 2 | } * & $ . + @ @ + + + + @ @ @ ",
"+ + . . . . . + + + ' , h i : _ 4 5 5 5 5 5 5 5 5 5 5 5 5 5 5 5 5 5 5 5 5 5 5 5 5 5 5 5 5 5 5 4 _ / j k , ' + + @ @ @ + + + @ @ ",
"@ @ + + + + @ + + l m h j : 4 5 5 5 5 5 5 5 5 5 5 5 5 5 5 5 5 5 5 5 5 5 5 5 5 5 5 5 5 5 5 5 5 5 5 4 / ^ k , ' + + + + @ @ @ + @ ",
"+ + + @ @ @ + + l m k j / 4 5 5 5 5 5 5 5 5 5 5 5 5 5 5 5 5 5 5 5 5 5 5 5 5 5 5 5 5 5 5 5 5 5 5 5 5 4 : j h n l + + . . . . + # ",
"@ @ @ @ + + . $ , k j / 4 5 5 5 5 5 5 5 5 5 5 5 5 5 5 5 5 5 5 5 5 5 5 5 5 5 5 5 5 5 5 5 5 5 5 5 5 5 5 4 o p h , $ . . + + . + # ",
". + + + @ @ ' , * i q 4 5 5 5 5 5 5 5 5 5 5 5 5 5 5 5 5 5 5 5 5 5 5 5 5 5 5 5 5 5 5 5 5 5 5 5 5 5 5 5 5 4 : j k , ' + . . + @ # ",
". . . + + ' m h i o 4 5 5 5 5 5 5 5 5 5 5 5 5 5 5 5 5 5 5 5 5 5 5 5 5 5 5 5 5 5 5 5 5 5 5 5 5 5 5 5 5 5 5 4 / ^ * , $ . + + @ # ",
"+ + + . $ & * j : 4 5 5 5 5 5 5 5 5 5 5 5 5 5 5 5 5 5 5 5 5 5 5 5 5 5 5 5 5 5 5 5 5 5 5 5 5 5 5 5 5 5 5 5 5 4 : i h , ' @ @ @ # ",
"@ @ @ ' , k ^ / 4 5 5 5 5 5 5 5 5 5 5 5 5 5 5 5 5 5 5 5 5 5 5 5 5 5 5 5 5 5 5 5 5 5 5 5 5 5 5 5 5 5 5 5 5 5 5 4 : j h m l @ # # ",
"# # l m r i q 4 5 5 5 5 5 5 5 5 5 5 5 5 5 5 5 5 5 5 5 5 5 5 5 5 5 5 5 5 5 5 5 5 5 5 5 5 5 5 5 5 5 5 5 5 5 5 5 5 4 o p r s t u u ",
"u # v w p o 4 5 5 5 5 5 5 5 5 5 5 5 5 5 5 5 5 5 5 5 5 5 5 5 5 5 5 5 5 5 5 5 5 5 5 5 5 5 5 5 5 5 5 5 5 5 5 5 5 5 5 4 x y z A B B ",
"+ $ C D / E 5 5 5 5 5 5 5 5 5 5 5 5 5 5 5 5 5 5 5 5 5 5 5 5 5 5 5 5 5 5 5 5 5 5 5 5 5 5 5 5 5 5 5 5 5 5 5 5 5 5 5 5 4 : 8 ! ' + ",
"+ F { | _ 5 5 5 5 5 5 5 5 5 5 5 5 5 5 5 5 5 5 5 5 5 5 5 5 5 5 5 5 5 5 5 5 5 5 5 5 5 5 5 5 5 5 5 5 5 5 5 5 5 5 5 5 5 5 ( > b F + ",
"$ & ] 7 4 5 5 5 5 5 5 5 5 5 5 5 5 5 5 5 5 5 5 5 5 5 5 5 5 5 5 5 5 5 5 5 5 5 5 5 5 5 5 5 5 5 5 5 5 5 5 5 5 5 5 5 5 5 5 4 7 ] & ' ",
") * ^ 3 5 5 5 5 5 5 5 5 5 5 5 5 5 5 5 5 5 5 5 5 5 5 5 5 5 5 5 5 5 5 5 5 5 5 5 5 5 5 5 5 5 5 5 5 5 5 5 5 5 5 5 5 5 5 5 5 3 < 9 ) ",
"! } / 4 5 5 5 5 5 5 5 5 5 5 5 5 5 5 5 5 5 5 5 5 5 5 5 5 5 5 5 5 5 5 5 5 5 5 5 5 5 5 5 5 5 5 5 5 5 5 5 5 5 5 5 5 5 5 5 5 4 / 8 ! ",
"~ > ( 5 5 5 5 5 5 5 5 5 5 5 5 5 5 5 5 5 5 5 5 5 5 5 5 5 5 5 5 5 5 5 5 5 5 5 5 5 5 5 5 5 5 5 5 5 5 5 5 5 5 5 5 5 5 5 5 5 5 ( | [ ",
"[ 1 ( 5 5 5 5 5 5 5 5 5 5 5 5 5 5 5 5 5 5 5 5 5 5 5 5 5 5 5 5 5 5 5 5 5 5 5 5 5 5 5 5 5 5 5 5 5 5 5 5 5 5 5 5 5 5 5 5 5 5 _ | [ ",
"{ | ( 5 5 5 5 5 5 5 5 5 5 5 5 5 5 5 5 5 5 5 5 5 5 5 5 5 5 5 5 5 5 5 5 5 5 5 5 5 5 5 5 5 5 5 5 5 5 5 5 5 5 5 5 5 5 5 5 5 5 _ 1 { ",
"G 7 4 5 5 5 5 5 5 5 5 5 5 5 5 5 5 5 5 5 5 5 5 5 5 5 5 5 5 5 5 5 5 5 5 5 5 5 5 5 5 5 5 5 5 5 5 5 5 5 5 5 5 5 5 5 5 5 5 5 5 4 7 c ",
"= 6 5 5 5 5 5 5 5 5 5 5 5 5 5 5 5 5 5 5 5 5 5 5 5 5 5 5 5 5 5 5 5 5 5 5 5 5 5 5 5 5 5 5 5 5 5 5 5 5 5 5 5 5 5 5 5 5 5 5 5 5 3 8 ",
"H ( 5 5 5 5 5 5 5 5 5 5 5 5 5 5 5 5 5 5 5 5 5 5 5 5 5 5 5 5 5 5 5 5 5 5 5 5 5 5 5 5 5 5 5 5 5 5 5 5 5 5 5 5 5 5 5 5 5 5 5 5 ( I ",
"I ( 5 5 5 5 5 5 5 5 5 5 5 5 5 5 5 5 5 5 5 5 5 5 5 5 5 5 5 5 5 5 5 5 5 5 5 5 5 5 5 5 5 5 5 5 5 5 5 5 5 5 5 5 5 5 5 5 5 5 5 5 ( > ",
"> ( 5 5 5 5 5 5 5 5 5 5 5 5 5 5 5 5 5 5 5 5 5 5 5 5 5 5 5 5 5 5 5 5 5 5 5 5 5 5 5 5 5 5 5 5 5 5 5 5 5 5 5 5 5 5 5 5 5 5 5 5 _ > ",
"> ( 5 5 5 5 5 5 5 5 5 5 5 5 5 5 5 5 5 5 5 5 5 5 5 5 5 5 5 5 5 4 4 5 5 5 5 5 5 5 5 5 5 5 5 5 5 5 5 5 5 5 5 5 5 5 5 5 5 5 5 5 ( > ",
"J K 5 5 5 5 5 5 5 5 5 5 5 5 5 5 5 5 5 5 5 5 5 5 5 5 5 5 5 5 L M M L 5 5 5 5 5 5 5 5 5 5 5 5 5 5 5 5 5 5 5 5 5 5 5 5 5 5 5 5 K J ",
"N K 5 5 5 5 5 5 5 5 5 5 5 5 5 5 5 5 5 5 5 5 5 5 5 5 5 5 5 5 O P P O 5 5 5 5 5 5 5 5 5 5 5 5 5 5 5 5 5 5 5 5 5 5 5 5 5 5 5 5 K N ",
"; _ 5 5 5 5 5 5 5 5 5 5 5 5 5 5 5 5 5 5 5 5 5 5 5 5 5 5 5 _ Q R R Q _ 5 5 5 5 5 5 5 5 5 5 5 5 5 5 5 5 5 5 5 5 5 5 5 5 5 5 5 ( J ",
"; _ 5 5 5 5 5 5 5 5 5 5 5 5 5 5 5 5 5 5 5 5 5 5 5 5 5 5 4 / } a a } / 4 5 5 5 5 5 5 5 5 5 5 5 5 5 5 5 5 5 5 5 5 5 5 5 5 5 5 ( J ",
"; _ 5 5 5 5 5 5 5 5 5 5 5 5 5 5 5 5 5 5 5 5 5 5 5 5 5 5 6 < 9 , , * ^ 6 5 5 5 5 5 5 5 5 5 5 5 5 5 5 5 5 5 5 5 5 5 5 5 5 5 5 ( I ",
"; ( 5 5 5 5 5 5 5 5 5 5 5 5 5 5 5 5 5 5 5 5 5 5 5 5 5 4 7 ] & $ ' , c 2 4 5 5 5 5 5 5 5 5 5 5 5 5 5 5 5 5 5 5 5 5 5 5 5 5 5 ( I ",
"; _ 5 5 5 5 5 5 5 5 5 5 5 5 5 5 5 5 5 5 5 5 5 5 5 5 5 ( > b % + + F { | _ 5 5 5 5 5 5 5 5 5 5 5 5 5 5 5 5 5 5 5 5 5 5 5 5 5 ( J ",
"; ( 5 5 5 5 5 5 5 5 5 5 5 5 5 5 5 5 5 5 5 5 5 5 5 5 4 : } a ' + + ' ! 8 : 4 5 5 5 5 5 5 5 5 5 5 5 5 5 5 5 5 5 5 5 5 5 5 5 5 ( J ",
"; _ 5 5 5 5 5 5 5 5 5 5 5 5 5 5 5 5 5 5 5 5 5 5 5 5 g < 9 , + @ @ + , * ^ 6 5 5 5 5 5 5 5 5 5 5 5 5 5 5 5 5 5 5 5 5 5 5 5 5 ( J ",
"> ( 5 5 5 5 5 5 5 5 5 5 5 5 5 5 5 5 5 5 5 5 5 5 5 4 2 c , ' @ @ + + $ & c 2 4 5 5 5 5 5 5 5 5 5 5 5 5 5 5 5 5 5 5 5 5 5 5 5 ( I ",
"I ( 5 5 5 5 5 5 5 5 5 5 5 5 5 5 5 5 5 5 5 5 5 5 5 ( | { % . + @ @ @ + F b 1 ( 5 5 5 5 5 5 5 5 5 5 5 5 5 5 5 5 5 5 5 5 5 5 5 ( I ",
"H ( 5 5 5 5 5 5 5 5 5 5 5 5 5 5 5 5 5 5 5 5 5 5 5 _ | [ F + + + + + + F S T ( 5 5 5 5 5 5 5 5 5 5 5 5 5 5 5 5 5 5 5 5 5 5 5 ( U ",
"= 6 5 5 5 5 5 5 5 5 5 5 5 5 5 5 5 5 5 5 5 5 5 5 5 ( > ~ % + @ @ @ @ @ 0 ~ > _ 5 5 5 5 5 5 5 5 5 5 5 5 5 5 5 5 5 5 5 5 5 5 5 3 V ",
"G 2 4 5 5 5 5 5 5 5 5 5 5 5 5 5 5 5 5 5 5 5 5 5 4 : W X l @ @ + + + + ' ! } / 4 5 5 5 5 5 5 5 5 5 5 5 5 5 5 5 5 5 5 5 5 5 4 2 Y ",
"b 1 ( 5 5 5 5 5 5 5 5 5 5 5 5 5 5 5 5 5 5 5 5 5 3 < 9 , + + + + + + . . ) * < 3 5 5 5 5 5 5 5 5 5 5 5 5 5 5 5 5 5 5 5 5 5 ( T Z ",
"S T ( 5 5 5 5 5 5 5 5 5 5 5 5 5 5 5 5 5 5 5 5 4 f e m ' + + + + @ @ + + ' , c 2 4 5 5 5 5 5 5 5 5 5 5 5 5 5 5 5 5 5 5 5 5 ( ` Z ",
"Z  .K 5 5 5 5 5 5 5 5 5 5 5 5 5 5 5 5 5 5 5 5 K ..Z +.# u u u # # # # # # +.Z ` ( 5 5 5 5 5 5 5 5 5 5 5 5 5 5 5 5 5 5 5 5 K  .@.",
"#.$.x 4 5 5 5 5 5 5 5 5 5 5 5 5 5 5 5 5 5 5 5 K %.@.&.B B B B B B B B B u *.@...K 5 5 5 5 5 5 5 5 5 5 5 5 5 5 5 5 5 5 5 4 x =.-.",
";.>.,.'.5 5 5 5 5 5 5 5 5 5 5 5 5 5 5 5 5 5 5 _ | [ F + + @ # u           ).!.Q _ 5 5 5 5 5 5 5 5 5 5 5 5 5 5 5 5 5 5 5 '.,.>.;.",
"$ & ] 7 4 5 5 5 5 5 5 5 5 5 5 5 5 5 5 5 5 5 4 / } a $ . + + + # . . . . . $ a } / 4 5 5 5 5 5 5 5 5 5 5 5 5 5 5 5 5 5 4 7 ] & $ ",
". % b > ( 5 5 5 5 5 5 5 5 5 5 5 5 5 5 5 5 5 6 ^ * ) . . . . + @ . . + + + + ) * ^ 6 5 5 5 5 5 5 5 5 5 5 5 5 5 5 5 5 5 ( | { % . ",
". ' X W q 4 5 5 5 5 5 5 5 5 5 5 5 5 5 5 5 4 2 c , $ + + + . + # + + + + . . $ , c 2 4 5 5 5 5 5 5 5 5 5 5 5 5 5 5 5 4 / } a $ . ",
"@ @ , 9 j : 4 5 5 5 5 5 5 5 5 5 5 5 5 5 5 ( T Z 0 + + . . . + @ @ + + + + + + F b | _ 5 5 5 5 5 5 5 5 5 5 5 5 5 5 4 / j 9 ) . . ",
"+ + ' , k ^ : 4 5 5 5 5 5 5 5 5 5 5 5 5 4 : 8 X l @ + + + + + # @ @ + + @ @ @ l ! 8 / 4 5 5 5 5 5 5 5 5 5 5 5 5 4 : j * & $ . + ",
". . + ' & * ^ / 4 5 5 5 5 5 5 5 5 5 5 5 6 ^ * ) + + @ @ @ @ @ # + + @ @ + + . . ) * < 3 5 5 5 5 5 5 5 5 5 5 5 4 q i k , ' + + . ",
". . . . $ & k j : 4 5 5 5 5 5 5 5 5 5 4 7 c , ' + + + + + + + @ + + + . . . . . ' , c 2 4 5 5 5 5 5 5 5 5 5 4 q j k , ' + . . . ",
". . + + + ' m h i : 4 5 5 5 5 5 5 5 5 _ | { % + + . . . . . + @ + + . . . . + + + % { > ( 5 5 5 5 5 5 5 5 4 : j * & $ . . . . . ",
"+ . . . + + ' m h p o 4 5 5 5 5 5 5 4 : } a $ . . . . . + + + @ + + + + + . . . . $ ! 8 : 4 5 5 5 5 5 5 4 / j k , ' . . . + + + ",
"+ + + + + @ @ l , k j : 4 5 5 5 5 5 3 < 9 , + + + + + + . . + @ @ @ @ + + + + . . . ) * ^ 6 5 5 5 5 5 4 / j h m ' + + + @ @ @ @ ",
"@ @ @ @ @ + + + ' , * ^ / 4 5 5 5 4 7 c , l @ @ + + + + + + + # + @ @ @ @ @ + + + + $ & ] 7 4 5 5 5 4 : j k , l @ @ @ @ + + + + ",
"+ + + + @ @ @ @ @ l m k j : 4 5 5 ( | { % . + @ @ @ + + + + @ # + + + + + + + + + + + F b > ( 5 5 4 : j h m l + + + + + + + + + ",
"+ + + + + + + + @ @ l m h i : ( ( ~.8 ! ' + @ @ @ + @ @ @ @ # # @ @ + + + + + @ @ @ + ' X W {.( ( q i h m l + + + + @ @ + + + + ",
"u u u # # # # u u # # ].s w ^.U N /.(._.# # # # @ @ # # # # # # # # @ @ # # # # # # # u _.(./.U U ^.w n ].u # # u # # # # u u u ",
"B B B B u u u u B u B B B u B B B B B B u u u u # # u u # # # # # # # # u u u u u u B B B B B u B B B B B B B B B B B B B B B B "};
