/* XPM */
static char * player_T_xpm[] = {
"64 64 64 1",
" 	c #C29D62",
".	c #B8945F",
"+	c #AF8F55",
"@	c #9F844D",
"#	c #967441",
"$	c #B09055",
"%	c #BDA64F",
"&	c #F6F324",
"*	c #FAF819",
"=	c #C4A958",
"-	c #B9955F",
";	c #FAF815",
">	c #F6F323",
",	c #FEFE02",
"'	c #FFFF00",
")	c #FFFE03",
"!	c #F5F21F",
"~	c #B79B52",
"{	c #F5F31E",
"]	c #BFA15B",
"^	c #B79C52",
"/	c #FAF914",
"(	c #B29F47",
"_	c #A0864D",
":	c #BEA74E",
"<	c #F3F115",
"[	c #AB943C",
"}	c #F3F11C",
"|	c #C5AA58",
"1	c #FBF917",
"2	c #B19E47",
"3	c #F4F21B",
"4	c #A9924A",
"5	c #BF9F5C",
"6	c #F9F811",
"7	c #AA944A",
"8	c #F9F812",
"9	c #977641",
"0	c #FEFE01",
"a	c #F1EF12",
"b	c #A1853E",
"c	c #7E6237",
"d	c #F8F809",
"e	c #AC953C",
"f	c #806537",
"g	c #F7F607",
"h	c #7D6E2A",
"i	c #67502C",
"j	c #8F7A35",
"k	c #F8F70A",
"l	c #F0EF0C",
"m	c #8C7F28",
"n	c #69532C",
"o	c #FBF91A",
"p	c #C8A85E",
"q	c #F3F016",
"r	c #F8F70E",
"s	c #FBF918",
"t	c #CDB25A",
"u	c #A2873E",
"v	c #8D7835",
"w	c #C39E62",
"x	c #CCB05B",
"y	c #F7F424",
"      ........              ..    ....                    ..++@#",
"......++..++$%&**&=-..........++.++......+..-=&;;&=-.......++++#",
"+......++..-=>,'')!~+....+++++....+++.+++...~!)'',{=-........++@",
"++........$%{,''''*]++++..++.++.....++++..++^;'''')>=-+.++++..+#",
"....++@++-=>,'''''/($+@@+@@@+.+++......+++@_:/''''',>%$++...++@#",
"..++.++@-=>,'''''',<[_@@@+++++......++++@@_%{,'''''')>%_@++++@@@",
"++.....$%{,'''''''',}~+++.++..+++++.....++~!,'''''''',{%_@@+++@@",
"@@++++_%{,'''''''''';]......++@@+++++++@@+^;'''''''''',{%$+@@@+@",
"+++@@_%{,'''''''''''/:$+...+++++@@@#@@@++$|1''''''''''',{%-...+#",
"@@@@$%>)'''''''''''')>=-++++@@@@@##@@+++$%{,'''''''''''')>=$+.+#",
".++$23,'''''''''''''',}4@@@@+++++..+++..5&)'''''''''''''',{=-+@#",
"..-%{,'''''''''''''''';^+@@#@@@@+++.....^;'''''''''''''''')>%$@#",
"++~&)'''''''''''''''''1|$+...+++@@+++++$(6''''''''''''''''',}4@#",
"@@7;'''''''''''''''''',{=-.+++@@@@@@++_23,''''''''''''''''''87##",
"#9(6'''''''''''''''''''0ab##cc########ba0'''''''''''''''''''defc",
"f[<0''''''''''''''''''''ghiiiiiiiiicccjk''''''''''''''''''''0lmn",
"~&)'''''''''''''''''''''op  .+@#      po''''''''''''''''''''',!~",
"^;''''''''''''''''''''''*]....+#......]*'''''''''''''''''''''';^",
"]*''''''''''''''''''''''1|-+.++@.++.+$:/''''''''''''''''''''''*^",
"]*'''''''''''''''''''''',{=-+++@...+$%{)'''''''''''''''''''''';]",
":1''''''''''''''''''''''',!~+++#++++4q,'''''''''''''''''''''''/:",
"!,''''''''''''''''''''''''87@++@@@++^8'''''''''''''''''''''''')&",
"*''''''''''''''''''''''''';^+@@#++@@7;'''''''''''''''''''''''''*",
"*''''''''''''''''''''''''';^+++#.+++78'''''''''''''''''''''''''*",
"*'''''''''''''''''''''''''1|-++@...-:/''''''''''''''''''''''''';",
"*''''''''''''''''''''''''')>%$+@..$=>)''''''''''''''''''''''''';",
";'''''''''''''''''''''''''')&5+@++5&)''''''''''''''''''''''''''8",
"8'''''''''''''''''''''''''''*^+#++^;''''''''''''''''''''''''''';",
";'''''''''''''''''''''''''''/:_#+_(/''''''''''''''''''''''''''';",
";''''''''''''''''''''''''''',3[9_23,''''''''''''''''''''''''''';",
"r''''''''''''''''''''''''''''0qbbq0''''''''''''''''''''''''''''r",
"k'''''''''''''''''''''''''''''ghhg'''''''''''''''''''''''''''''k",
"*'''''''''''''''''''''''''''''stts'''''''''''''''''''''''''''''r",
"*''''''''''''''''''''''''''''')11)'''''''''''''''''''''''''''''r",
"*''''''''''''''''''''''''''''''''''''''''''''''''''''''''''''''8",
"*''''''''''''''''''''''''''''''''''''''''''''''''''''''''''''''8",
"*''''''''''''''''''''''''''''''''''''''''''''''''''''''''''''''r",
"*''''''''''''''''''''''''''''''''''''''''''''''''''''''''''''''r",
"&)'''''''''''''''''''''''''''''''''''''''''''''''''''''''''''',q",
":/''''''''''''''''''''''''''''''''''''''''''''''''''''''''''''/(",
"78'''''''''''''''''''''''''''''''''''''''''''''''''''''''''''';7",
"^;'''''''''''''''''''''''''''''''''''''''''''''''''''''''''''';u",
"]*'''''''''''''''''''''''''''''''''''''''''''''''''''''''''''';7",
"5!,'''''''''''''''''''''''''''''''''''''''''''''''''''''''''',!b",
"$%3,'''''''''''''''''''''''''''''''''''''''''''''''''''''''',{29",
"@_(6''''''''''''''''''''''''''''''''''''''''''''''''''''''''6(9#",
"#cur''''''''''''''''''''''''''''''''''''''''''''''''''''''''rucc",
"ccva0''''''''''''''''''''''''''''''''''''''''''''''''''''''0avii",
"  wx>)'''''''''''''''''''''''''''''''''''''''''''''''''''')yxw  ",
"...-%{,'''''''''''''''''''''''''''''''''''''''''''''''''')>=-...",
"..++$2{,''''''''''''''''''''''''''''''''''''''''''''''''){%$....",
".+@@@_2{,''''''''''''''''''''''''''''''''''''''''''''''){%-.....",
"@@++++$=>)'''''''''''''''''''''''''''''''''''''''''''',{=-.++...",
"+++++.+$%>,'''''''''''''''''''''''''''''''''''''''''',32_++....+",
"..++....-=>)'''''''''''''''''''''''''''''''''''''''',{29@@+++++.",
"......+++$%{,'''''''''''''''''''''''''''''''''''''',3[9@+++++...",
"..++++@@@+_2{,'''''''''''''''''''''''''''''''''''',{%$++........",
"+...+++@@##_23,'''''''''''''''''''''''''''''''''',{%-.++++...+++",
"+++++@@@++++$%&*1)'''''''''''''''''''''''''''')1;&=-.+@@++++@@@@",
"@@@@@+++++...-5]|>)''''''''''''''''''''''''''){:]5$++++@@@@@++++",
"++++@@@@@@@+++++$%&***/,'''''''''''''''',/;;;!%_++++@@@+++++++++",
"++++++++@@@@@@+++$~^^^(3,'''''''''''''',3(^^74_@@@@@@@++++@@++++",
"ccc####cc##cc###cccc##9[}8rrrrrrrr88rrrq[9#cccc#####cc##c####ccc",
"iiiicccciciiiciiiiiicccc##cc########cccccciiiiiciiiiiiiiiiiiiiii"};
