/* XPM */
static char * player_R_xpm[] = {
"64 64 8 1",
" 	c #C29D62",
".	c #B8945F",
"+	c #FFFF00",
"@	c #AF8F55",
"#	c #9F844D",
"$	c #967441",
"%	c #7E6237",
"&	c #67502C",
"      ........           ++++++++++++++++++               ..@@#$",
"......@@..@@@@......++++++++++++++++++++++++++++@..........@@@@$",
"@......@@.....@@@.@++++++++++++++++++++++++++++++@@..........@@#",
"@@........@@@@@.++++++++++++++++++++++++++++++++++++..@.@@@@..@$",
"....@@#@@...@@.++++++++++++++++++++++++++++++++++++++@@@@...@@#$",
"..@@.@@#...@..++++++++++++++++++++++++++++++++++++++++@##@@@@###",
"@@.....@@@@@#++++++++++++++++++++++++++++++++++++++++++@###@@@##",
"##@@@@#@@###++++++++++++++++++++++++++++++++++++++++++++@@@###@#",
"@@@###@@##@++++++++++++++++++++++++++++++++++++++++++++++@....@$",
"####@@..@@++++++++++++++++++++++++++++++++++++++++++++++++.@@.@$",
".@@@##@@.++++++++++++++++++++++++++++++++++++++++++++++++++..@#$",
"...@@@##++++++++++++++++++++++++++++++++++++++++++++++++++++@@#$",
"@@@....++++++++++++++++++++++++++++++++++++++++++++++++++++++##$",
"###@@@++++++++++++++++++++++++++++++++++++++++++++++++++++++++$$",
"$$##$++++++++++++++++++++++++++++++++++++++++++++++++++++++++++%",
"%$$$$++++++++++++++++++++++++++++++++++++++++++++++++++++++++++&",
"@.   ++++++++++++++++++++++++++++++++++++++++++++++++++++++++++@",
"@@..+++++++++++++++++++++++++++++++++++++++++++++++++++++++++++@",
"...+++++++++++++++++++++++++++++++++++++++++++++++++++++++++++.@",
"...++++++++++++++++++++++++++++++++++++++++++++++++++++++++.@@@.",
"@..+++++++++++++++++++++++++++++++++++++++++++++++++++++++@...@@",
"@@@++++++++++++++++++++++++++++++++++++++++++++++++++++@@@@@@@..",
".@@+++++++++++++++++++++++++++++++++++++++++++++++++++@##@......",
"..+++++++++++++++++++++++++++++++++++++++++++++++++@@@@@@@@@..@.",
".+++++++++++++++++++++++++++++++++++++++++++++++++###..@@##@@@.@",
".++++++++++++++++++++++++++++++++++++++++++++#@@###@@@@...@##@@@",
"@+++++++++++++++++++++++++++++++++++++++++++@@##@.......@@@@####",
"#++++++++++++++++++++++++++++++++++++++..@@@@@@@..@@...@@###$#@@",
"@+++++++++++++++++++++++++++++++++++++@@@@@@@....@@@@####@@@...@",
"@++++++++++++++++++++++++++++++++++###@@##@#@@@@@@###@@###@.@.@@",
"$+++++++++++++++++++++++++++++++++$%$$%%%$%$$$%%%$$$%%$$$$%%%$$$",
"%++++++++++++++++++++++++++++++&&&&&&&&&&&%%&&%%%%%%&&&&%&%%&&&%",
".++++++++++++++++++++++++++++++               ..        ...@@@#$",
".+++++++++++++++++++++++++++++++++............@...........@@..@$",
".++++++++++++++++++++++++++++++++++.@@....@@@@@@..@@@.@@@@...@@#",
".+++++++++++++++++++++++++++++++++++++@@.@@###@@@@@@....@@@@@@##",
".++++++++++++++++++++++++++++++++++++++@@..@#@@...@@@@@@#######$",
".+++++++++++++++++++++++++++++++++++++++++++..@@....@#####@@@@#$",
".++++++++++++++++++++++++++++++++++++++++++++...@@@@@@@@@@..@@@$",
"@+++++++++++++++++++++++++++++++++++++++++++++++++@@@@@....@@.@#",
"##+++++++++++++++++++++++++++++++++++++++++++++++++@###@@....@@#",
"@@#+++++++++++++++++++++++++++++++++++++++++++++++++++@@@@@@..@$",
"..@++++++++++++++++++++++++++++++++++++++++++++++++++++..@.@@@@#",
".@@+++++++++++++++++++++++++++++++++++++++++++++++++++++++...@@$",
"@@#++++++++++++++++++++++++++++++++++++++++++++++++++++++++@@@#$",
"###+++++++++++++++++++++++++++++++++++++++++++++++++++++++++++$$",
"$%$$+++++++++++++++++++++++++++++++++++++++++++++++++++++++++++%",
"%%%%&++++++++++++++++++++++++++++++++++++++++++++++++++++++++++&",
"    .++++++++++++++++++++++++++++++++++++++++++++++++++++++++++ ",
"....@++++++++++++++++++++++++++++++++++++++++++++++++++++++++++.",
"..@@@#++++++++++++++++++++++++++++++++++++++++++++++++++++++++..",
".@#####++++++++++++++++++++++++++++++++++++++++++++++++++++++...",
"##@@@@@.++++++++++++++++++++++++++++++++++++++++++++++++++++@...",
"@@@@@.@@@++++++++++++++++++++++++++++++++++++++++++++++++++....@",
"..@@......++++++++++++++++++++++++++++++++++++++++++++++++@@@@@.",
"......@@@@@++++++++++++++++++++++++++++++++++++++++++++++@@@@...",
"..@@@@###@##++++++++++++++++++++++++++++++++++++++++++++........",
"@...@@@##$$##++++++++++++++++++++++++++++++++++++++++++@@@...@@@",
"@@@@@###@@@@@@++++++++++++++++++++++++++++++++++++++++##@@@@####",
"#####@@@@@.....++++++++++++++++++++++++++++++++++++++@@#####@@@@",
"@@@@#######@@@@@++++++++++++++++++++++++++++++++++++###@@@@@@@@@",
"@@@@@@@@######@@@@@++++++++++++++++++++++++++++++#####@@@@##@@@@",
"%%%$$$$%%$$%%$$$%%%%++++++++++++++++++++++++++++$$$$%%$$%$$$$%%%",
"&&&&%%%%&%&&&%&&&&&&%%%%$++++++++++++++++++&&&&%&&&&&&&&&&&&&&&&"};
