/* XPM */
static char * player_L_xpm[] = {
"64 64 65 1",
" 	c #C29D62",
".	c #B8945F",
"+	c #C39E62",
"@	c #C7A75E",
"#	c #C8A85E",
"$	c #CDB15B",
"%	c #F7F325",
"&	c #FBF91A",
"*	c #FAF819",
"=	c #AF8F55",
"-	c #9F844D",
";	c #967441",
">	c #B9955F",
",	c #C4A958",
"'	c #F6F324",
")	c #FBF917",
"!	c #FFFE03",
"~	c #FFFF00",
"{	c #FAF815",
"]	c #BF9F5C",
"^	c #BFA15B",
"/	c #BEA74E",
"(	c #F5F31E",
"_	c #FEFE02",
":	c #B09055",
"<	c #BDA64F",
"[	c #F5F21F",
"}	c #FAF914",
"|	c #B19E47",
"1	c #F6F323",
"2	c #A0864D",
"3	c #977641",
"4	c #FEFE01",
"5	c #F3F115",
"6	c #F4F21B",
"7	c #F3F016",
"8	c #A1853E",
"9	c #7E6237",
"0	c #F8F70E",
"a	c #F8F70A",
"b	c #8F7A35",
"c	c #67502C",
"d	c #B79C52",
"e	c #B79B52",
"f	c #C5AA58",
"g	c #F3F11C",
"h	c #F9F812",
"i	c #A9924A",
"j	c #AA944A",
"k	c #B29F47",
"l	c #806537",
"m	c #AB943C",
"n	c #F9F80D",
"o	c #69532C",
"p	c #7C6C2A",
"q	c #7D6E2A",
"r	c #8F8328",
"s	c #F8F706",
"t	c #F7F607",
"u	c #CDB25A",
"v	c #FBF918",
"w	c #F1EF12",
"x	c #F2F011",
"y	c #9B8B32",
"z	c #9A8933",
"      ........ +@###$%&&&&&&**&&&&****%$###@+             ..==-;",
"......==..====>,'***)!~~~~~~~~~~~~~~~~!)*{*',>.==..........====;",
"=......==..>]^/(_~~~~~~~~~~~~~~~~~~~~~~~~~~!(/^]:==..........==-",
"==........:<[{}!~~~~~~~~~~~~~~~~~~~~~~~~~~~~_}{[|:....=.====..=;",
"....==-==>,1_~~~~~~~~~~~~~~~~~~~~~~~~~~~~~~~~~~_(,:=.====...==-;",
"..==.==->,1_~~~~~~~~~~~~~~~~~~~~~~~~~~~~~~~~~~~~!1,>..=--====---",
"==.....:<(_~~~~~~~~~~~~~~~~~~~~~~~~~~~~~~~~~~~~~~!(<:===---===--",
"--====2<(_~~~~~~~~~~~~~~~~~~~~~~~~~~~~~~~~~~~~~~~~!1<:=====---=-",
"===--2<(_~~~~~~~~~~~~~~~~~~~~~~~~~~~~~~~~~~~~~~~~~~_(|3-==....=;",
"----:<1!~~~~~~~~~~~~~~~~~~~~~~~~~~~~~~~~~~~~~~~~~~~~45|:...==.=;",
".==:|6_~~~~~~~~~~~~~~~~~~~~~~~~~~~~~~~~~~~~~~~~~~~~~~_(<:==..=-;",
"..><(_~~~~~~~~~~~~~~~~~~~~~~~~~~~~~~~~~~~~~~~~~~~~~~~~!1,:..==-;",
"=:<1!~~~~~~~~~~~~~~~~~~~~~~~~~~~~~~~~~~~~~~~~~~~~~~~~~~_6|:=---;",
"-|6_~~~~~~~~~~~~~~~~~~~~~~~~~~~~~~~~~~~~~~~~~~~~~~~~~~~~_(|2--;;",
";7_~~~~~~~~~~~~~~~~~~~~~~~~~~~~~~~~~~~~~~~~~~~~~~~~~~~~~~4789;99",
"90~~~~~~~~~~~~~~~~~~~~~~~~~~~~~~~~~~~~~~~~~~~~~~~~~~~~~~~~abcccc",
"=*~~~~~~~~~~~~~~~~~~~~~~~~~~~~~~~~~~~~~~~~~~~~~~~~~~~~~~~~}/:===",
"=[!~~~~~~~~~~~~~~~~~~~~~~~~~~~~~~~~~~~~~~~~~~~~~~~~~~~~~~~_6<:==",
".,'*)!~~~~~~~~~~~~~~~~~~~~~~~~~~~~~~~~~~~~~~~~~~~~~~~~~~~~~!'].=",
".>]d/(!~~~~~~~~~~~~~~~~~~~~~~~~~~~~~~~~~~~~~~~~~~~~~~~~~~~~~{d=.",
"=...><[{)!~~~~~~~~~~~~~~~~~~~~~~~~~~~~~~~~~~~~~~~~~~~~~~~~~~*^==",
"=====:e^f1!~~~~~~~~~~~~~~~~~~~~~~~~~~~~~~~~~~~~~~~~~~~~~~~~~{d..",
".===-===:<[{)_~~~~~~~~~~~~~~~~~~~~~~~~~~~~~~~~~~~~~~~~~~~~~~)f>.",
"..=----==>]^f1!~~~~~~~~~~~~~~~~~~~~~~~~~~~~~~~~~~~~~~~~~~~~~!1<.",
"....==----;-:<'**{}!~~~~~~~~~~~~~~~~~~~~~~~~~~~~~~~~~~~~~~~~~_'=",
"..==--====---:ed^^/(_~~~~~~~~~~~~~~~~~~~~~~~~~~~~~~~~~~~~~~~~~{=",
"=---==...====...==:|g{{{}_~~~~~~~~~~~~~~~~~~~~~~~~~~~~~~~~~~~~h-",
"--======....==....=:ijjd/6_~~~~~~~~~~~~~~~~~~~~~~~~~~~~~~~~~~~{=",
"==-----====..====--===--2|[{}_~~~~~~~~~~~~~~~~~~~~~~~~~~~~~~~~*=",
"=====-----==----===---;-=:ejk64~~~~~~~~~~~~~~~~~~~~~~~~~~~~~~~{=",
";9999;;;;;99;-;;;---;;;;99;9lm70n4~~~~~~~~~~~~~~~~~~~~~~~~~~~~0;",
"99cccccc999c999999;;99;9cc99copqrs~~~~~~~~~~~~~~~~~~~~~~~~~~~~t9",
"..        ..  ..===.....     +@#uv~~~~~~~~~~~~~~~~~~~~~~~~~~~~h;",
"..................===.......>,'*)!~~~~~~~~~~~~~~~~~~~~~~~~~~~~{;",
".........===..====.....=.>edf(_~~~~~~~~~~~~~~~~~~~~~~~~~~~~~~~{-",
".=====.=...=====....====:<'*)!~~~~~~~~~~~~~~~~~~~~~~~~~~~~~~~~h-",
"......====---;-====>]ddd/1!~~~~~~~~~~~~~~~~~~~~~~~~~~~~~~~~~~~h;",
".===...======-;;--2|[{hh}_~~~~~~~~~~~~~~~~~~~~~~~~~~~~~~~~~~~~h;",
"..====.....==:ed^^/(_~~~~~~~~~~~~~~~~~~~~~~~~~~~~~~~~~~~~~~~~~{;",
"===.....===.:<'**{}_~~~~~~~~~~~~~~~~~~~~~~~~~~~~~~~~~~~~~~~~~![-",
"--=======>]d/6_~~~~~~~~~~~~~~~~~~~~~~~~~~~~~~~~~~~~~~~~~~~~~!(<-",
"==---=..>,[{}_~~~~~~~~~~~~~~~~~~~~~~~~~~~~~~~~~~~~~~~~~~~~~~)f:;",
"..=--2edf1!~~~~~~~~~~~~~~~~~~~~~~~~~~~~~~~~~~~~~~~~~~~~~~~~~{d=-",
".===:|g{}_~~~~~~~~~~~~~~~~~~~~~~~~~~~~~~~~~~~~~~~~~~~~~~~~~~*d=;",
"=:ijk(_~~~~~~~~~~~~~~~~~~~~~~~~~~~~~~~~~~~~~~~~~~~~~~~~~~~~~{d-;",
"-|gh}_~~~~~~~~~~~~~~~~~~~~~~~~~~~~~~~~~~~~~~~~~~~~~~~~~~~~~_gi;;",
";w4~~~~~~~~~~~~~~~~~~~~~~~~~~~~~~~~~~~~~~~~~~~~~~~~~~~~~~~4xm399",
"9a~~~~~~~~~~~~~~~~~~~~~~~~~~~~~~~~~~~~~~~~~~~~~~~~~~~~~~~~syl9cc",
" &~~~~~~~~~~~~~~~~~~~~~~~~~~~~~~~~~~~~~~~~~~~~~~~~~~~~~~~~&#    ",
".'!~~~~~~~~~~~~~~~~~~~~~~~~~~~~~~~~~~~~~~~~~~~~~~~~~~~~~~!']....",
".,(_~~~~~~~~~~~~~~~~~~~~~~~~~~~~~~~~~~~~~~~~~~~~~~~~~~~~!(<:....",
".:|6_~~~~~~~~~~~~~~~~~~~~~~~~~~~~~~~~~~~~~~~~~~~~~~~~~~!(<>.....",
"--:<(_~~~~~~~~~~~~~~~~~~~~~~~~~~~~~~~~~~~~~~~~~~~~~~~~_(,>.==...",
"===:<1_~~~~~~~~~~~~~~~~~~~~~~~~~~~~~~~~~~~~~~~~~~~~~~_6|2==....=",
"..==>,1!~~~~~~~~~~~~~~~~~~~~~~~~~~~~~~~~~~~~~~~~~~~~_(|3--=====.",
".....><(_~~~~~~~~~~~~~~~~~~~~~~~~~~~~~~~~~~~~~~~~~~_6m3-=====...",
"..====2|6_~~~~~~~~~~~~~~~~~~~~~~~~~~~~~~~~~~~~~~~~_(<:==........",
"=...===2|54~~~~~~~~~~~~~~~~~~~~~~~~~~~~~~~~~~~~~~_(<>.====...===",
"=====---:<(_~~~~~~~~~~~~~~~~~~~~~~~~~~~~~~~~~~~~_1,>.=--====----",
"-----====:,1!~~~~~~~~~~~~~~~~~~~~~~~~~~~~~~~~~~_1,:====-----====",
"====------2<[{}_~~~~~~~~~~~~~~~~~~~~~~~~~~~~_}{g<:==---=========",
"========---2ij/(_~~~~~~~~~~~~~~~~~~~~~~~~~~_6kji2-----====--====",
"999;;;;99;;99;3mwaaan4~~~~~~~~~~~~~~~~4n000wzl9;;;;;99;;9;;;;999",
"cccc9999c9ccc9copqqqywaa00aa00000000aawybbqpocc9cccccccccccccccc"};
